<svg xmlns="http://www.w3.org/2000/svg" width="23" height="22" viewBox="0 0 23 22" fill="none"><path d="M20.412 14.0031C19.1061 14.0031 17.8238 13.7988 16.6087 13.3972C16.0133 13.1942 15.2813 13.3805 14.9179 13.7537L12.5195 15.5643C9.738 14.0795 8.02466 12.3667 6.56018 9.60612L8.31745 7.27019C8.77401 6.81425 8.93776 6.14823 8.74157 5.52331C8.33829 4.3018 8.13342 3.02012 8.13342 1.71362C8.13348 0.7698 7.36563 0.00195312 6.42186 0.00195312H2.50458C1.56082 0.00195312 0.792969 0.7698 0.792969 1.71357C0.792969 12.5316 9.59396 21.3326 20.412 21.3326C21.3558 21.3326 22.1236 20.5647 22.1236 19.621V15.7146C22.1236 14.7709 21.3557 14.0031 20.412 14.0031Z" fill="white"></path></svg>