<svg xmlns="http://www.w3.org/2000/svg" width="23" height="22" viewBox="0 0 23 22" fill="none"><g clip-path="url(#clip0_86_504)"><path d="M14.5352 11.7012L12.7487 13.4937C12.0243 14.2207 10.7496 14.2363 10.0095 13.4937L8.22291 11.7012L1.8064 18.1385C2.04524 18.249 2.30858 18.3149 2.58855 18.3149H20.1696C20.4496 18.3149 20.7129 18.249 20.9516 18.1386L14.5352 11.7012Z" fill="white"></path><path d="M20.1696 3.31055H2.58846C2.3085 3.31055 2.04516 3.37646 1.8064 3.4869L8.6629 10.3661C8.66336 10.3666 8.6639 10.3667 8.66436 10.3671C8.66481 10.3676 8.6649 10.3682 8.6649 10.3682L10.8943 12.605C11.1311 12.8418 11.627 12.8418 11.8638 12.605L14.0927 10.3686C14.0927 10.3686 14.0933 10.3676 14.0937 10.3671C14.0937 10.3671 14.0947 10.3666 14.0952 10.3661L20.9515 3.48686C20.7128 3.37637 20.4495 3.31055 20.1696 3.31055Z" fill="white"></path><path d="M0.912038 4.36914C0.78847 4.61903 0.712646 4.89641 0.712646 5.19354V16.4421C0.712646 16.7392 0.788387 17.0166 0.911996 17.2665L7.33964 10.818L0.912038 4.36914Z" fill="white"></path><path d="M21.855 4.36914L15.4275 10.8181L21.855 17.2667C21.9786 17.0168 22.0544 16.7394 22.0544 16.4422V5.19362C22.0544 4.89641 21.9786 4.61903 21.855 4.36914Z" fill="white"></path></g><defs><clipPath id="clip0_86_504"><rect width="21.3306" height="21.3306" fill="white" transform="translate(0.716553 0.146484)"></rect></clipPath></defs></svg>