<svg xmlns="http://www.w3.org/2000/svg" width="19" height="19" viewBox="0 0 19 19" fill="none"><g clip-path="url(#clip0_1376_1650)"><path d="M13.8268 0.175781H5.46713C2.74638 0.175781 0.532959 2.44851 0.532959 5.24216V13.826C0.532959 16.6195 2.74638 18.8922 5.46713 18.8922H13.827C16.5476 18.8922 18.761 16.6195 18.761 13.826V5.24216C18.761 2.44851 16.5476 0.175781 13.8268 0.175781ZM17.6924 13.826C17.6924 16.0145 15.9584 17.795 13.8268 17.795H5.46713C3.33562 17.795 1.60157 16.0145 1.60157 13.826V5.24216C1.60157 3.05353 3.33562 1.27302 5.46713 1.27302H13.827C15.9584 1.27302 17.6924 3.05353 17.6924 5.24216V13.826Z" fill="#0A1514"></path><path d="M9.64718 4.41602C6.8989 4.41602 4.66309 6.71173 4.66309 9.53365C4.66309 12.3556 6.8989 14.6513 9.64718 14.6513C12.3955 14.6513 14.6313 12.3556 14.6313 9.53365C14.6313 6.71173 12.3955 4.41602 9.64718 4.41602ZM9.64718 13.5541C7.48827 13.5541 5.73169 11.7505 5.73169 9.53365C5.73169 7.3169 7.48827 5.51325 9.64718 5.51325C11.8062 5.51325 13.5627 7.3169 13.5627 9.53365C13.5627 11.7505 11.8062 13.5541 9.64718 13.5541Z" fill="#0A1514"></path><path d="M14.7503 2.59863C13.9382 2.59863 13.2776 3.27705 13.2776 4.11083C13.2776 4.94476 13.9382 5.62318 14.7503 5.62318C15.5625 5.62318 16.2232 4.94476 16.2232 4.11083C16.2232 3.27691 15.5625 2.59863 14.7503 2.59863ZM14.7503 4.5258C14.5275 4.5258 14.3462 4.33959 14.3462 4.11083C14.3462 3.88193 14.5275 3.69587 14.7503 3.69587C14.9733 3.69587 15.1546 3.88193 15.1546 4.11083C15.1546 4.33959 14.9733 4.5258 14.7503 4.5258Z" fill="#0A1514"></path></g><defs><clipPath id="clip0_1376_1650"><rect width="18.2281" height="18.7165" fill="white" transform="translate(0.532959 0.175781)"></rect></clipPath></defs></svg>