<svg xmlns="http://www.w3.org/2000/svg" width="23" height="23" viewBox="0 0 23 23" fill="none"><g clip-path="url(#clip0_86_522)"><path d="M11.3796 0.685547C9.259 0.68836 7.22606 1.53201 5.72657 3.0315C4.22708 4.53099 3.38343 6.56393 3.38062 8.68453C3.38062 14.4271 10.833 21.6195 11.1496 21.9228C11.2112 21.9827 11.2937 22.0162 11.3796 22.0162C11.4655 22.0162 11.548 21.9827 11.6096 21.9228C11.9262 21.6195 19.3786 14.4271 19.3786 8.68453C19.3758 6.56393 18.5321 4.53099 17.0326 3.0315C15.5331 1.53201 13.5002 0.68836 11.3796 0.685547ZM11.3796 12.3507C10.6545 12.3507 9.94567 12.1357 9.34277 11.7329C8.73986 11.33 8.26996 10.7574 7.99247 10.0875C7.71498 9.41761 7.64238 8.68046 7.78384 7.96929C7.9253 7.25812 8.27447 6.60486 8.7872 6.09213C9.29993 5.57941 9.95318 5.23023 10.6644 5.08877C11.3755 4.94731 12.1127 5.01992 12.7826 5.2974C13.4525 5.57489 14.0251 6.04479 14.4279 6.6477C14.8308 7.2506 15.0458 7.95942 15.0458 8.68453C15.0452 9.65669 14.6588 10.5889 13.9713 11.2763C13.2839 11.9637 12.3518 12.3501 11.3796 12.3507Z" fill="white"></path></g><defs><clipPath id="clip0_86_522"><rect width="21.3306" height="21.3306" fill="white" transform="translate(0.716553 0.689453)"></rect></clipPath></defs></svg>