<svg xmlns="http://www.w3.org/2000/svg" width="22" height="22" viewBox="0 0 22 22" fill="none"><g clip-path="url(#clip0_124_3903)"><path d="M11.1611 -0.00195312C9.04049 0.000859899 7.00755 0.844511 5.50806 2.344C4.00857 3.84349 3.16492 5.87643 3.16211 7.99703C3.16211 13.7396 10.6145 20.932 10.9311 21.2353C10.9927 21.2952 11.0752 21.3287 11.1611 21.3287C11.247 21.3287 11.3295 21.2952 11.3911 21.2353C11.7077 20.932 19.1601 13.7396 19.1601 7.99703C19.1573 5.87643 18.3136 3.84349 16.8141 2.344C15.3146 0.844511 13.2817 0.000859899 11.1611 -0.00195312ZM11.1611 11.6632C10.436 11.6632 9.72716 11.4482 9.12426 11.0454C8.52136 10.6425 8.05145 10.0699 7.77396 9.40002C7.49648 8.73011 7.42388 7.99296 7.56534 7.28179C7.7068 6.57062 8.05597 5.91736 8.5687 5.40463C9.08142 4.89191 9.73468 4.54273 10.4459 4.40127C11.157 4.25981 11.8942 4.33242 12.5641 4.6099C13.234 4.88739 13.8066 5.35729 14.2094 5.9602C14.6123 6.5631 14.8273 7.27192 14.8273 7.99703C14.8267 8.96919 14.4403 9.90136 13.7528 10.5888C13.0654 11.2762 12.1332 11.6626 11.1611 11.6632Z" fill="white"></path></g><defs><clipPath id="clip0_124_3903"><rect width="21.3306" height="21.3306" fill="white" transform="translate(0.498047 0.00195312)"></rect></clipPath></defs></svg>