<svg width="22" height="22" viewBox="0 0 22 22" fill="none" xmlns="http://www.w3.org/2000/svg">
<g clip-path="url(#clip0_124_3869)">
<path d="M14.4651 11.5566L12.6786 13.3492C11.9542 14.0762 10.6795 14.0918 9.93941 13.3492L8.15285 11.5566L1.73633 17.994C1.97517 18.1044 2.23851 18.1703 2.51848 18.1703H20.0996C20.3795 18.1703 20.6428 18.1045 20.8816 17.994L14.4651 11.5566Z" fill="white"/>
<path d="M20.0995 3.16602H2.5184C2.23843 3.16602 1.97509 3.23192 1.73633 3.34237L8.59283 10.2216C8.59329 10.2221 8.59383 10.2222 8.59429 10.2226C8.59475 10.2231 8.59483 10.2237 8.59483 10.2237L10.8243 12.4605C11.0611 12.6973 11.5569 12.6973 11.7937 12.4605L14.0227 10.2241C14.0227 10.2241 14.0232 10.2231 14.0237 10.2226C14.0237 10.2226 14.0247 10.2221 14.0251 10.2216L20.8815 3.34233C20.6427 3.23184 20.3795 3.16602 20.0995 3.16602Z" fill="white"/>
<path d="M0.841969 4.22461C0.718402 4.47449 0.642578 4.75188 0.642578 5.049V16.2976C0.642578 16.5947 0.718318 16.8721 0.841928 17.122L7.26957 10.6735L0.841969 4.22461Z" fill="white"/>
<path d="M21.785 4.22461L15.3574 10.6736L21.785 17.1221C21.9085 16.8722 21.9844 16.5949 21.9844 16.2977V5.04909C21.9844 4.75188 21.9085 4.47449 21.785 4.22461Z" fill="white"/>
</g>
<defs>
<clipPath id="clip0_124_3869">
<rect width="21.3306" height="21.3306" fill="white" transform="translate(0.646484 0.00195312)"/>
</clipPath>
</defs>
</svg>
