<svg width="23" height="22" viewBox="0 0 23 22" fill="none" xmlns="http://www.w3.org/2000/svg">
<g clip-path="url(#clip0_86_495)">
<path d="M20.3317 14.6046C19.0258 14.6046 17.7435 14.4004 16.5284 13.9988C15.9329 13.7957 15.201 13.982 14.8376 14.3553L12.4392 16.1658C9.65767 14.6811 7.94434 12.9683 6.47986 10.2077L8.23713 7.87176C8.69368 7.41582 8.85744 6.74979 8.66124 6.12487C8.25796 4.90336 8.0531 3.62169 8.0531 2.31519C8.05316 1.37136 7.28531 0.603516 6.34154 0.603516H2.42426C1.48049 0.603516 0.712646 1.37136 0.712646 2.31513C0.712646 13.1332 9.51364 21.9341 20.3317 21.9341C21.2755 21.9341 22.0433 21.1663 22.0433 20.2225V16.3162C22.0433 15.3725 21.2754 14.6046 20.3317 14.6046Z" fill="white"/>
</g>
<defs>
<clipPath id="clip0_86_495">
<rect width="21.3306" height="21.3306" fill="white" transform="translate(0.716553 0.603516)"/>
</clipPath>
</defs>
</svg>
