<svg xmlns="http://www.w3.org/2000/svg" width="33" height="33" viewBox="0 0 33 33" fill="none"><path d="M26.8165 27.8352L27.1872 27.5704C28.2917 26.7822 29.0786 25.6256 29.406 24.3089C29.7335 22.9921 29.5802 21.6017 28.9736 20.388L28.8351 20.1121L32.3334 22.56V31.6948L26.8165 27.8352ZM27.5337 10.5492C28.0798 11.3692 28.3996 12.3189 28.4606 13.3023C28.5217 14.2856 28.3218 15.2676 27.8813 16.1488L27.1608 17.5898L22.403 14.2615V6.23004L26.6218 9.18322L27.5337 10.5492ZM22.403 15.6087L26.9373 18.7826L27.9855 20.8817C28.4753 21.8603 28.5995 22.9816 28.3358 24.0436C28.0721 25.1056 27.4379 26.0386 26.5473 26.6744L25.8593 27.1654L22.403 24.7441V15.6087ZM32.3334 21.2127L28.0744 18.2336L28.8682 16.6453C29.3204 15.7409 29.5618 14.7458 29.5744 13.7347C29.5871 12.7236 29.3705 11.7228 28.9411 10.8074L32.3334 13.1813V21.2127ZM16.3345 0.205078C17.6508 0.206684 18.9128 0.730315 19.8436 1.66112C20.7744 2.59192 21.298 3.8539 21.2997 5.17025V21.5493C20.7411 20.7505 19.9982 20.0983 19.1338 19.648C18.2694 19.1977 17.3091 18.9625 16.3345 18.9625C15.3598 18.9625 14.3996 19.1977 13.5352 19.648C12.6708 20.0983 11.9278 20.7505 11.3693 21.5493V5.17025C11.3709 3.8539 11.8945 2.59192 12.8253 1.66112C13.7561 0.730315 15.0181 0.206684 16.3345 0.205078ZM0.335581 22.56L3.83382 20.111L3.69535 20.3869C3.08869 21.6003 2.93508 22.9904 3.26216 24.307C3.58924 25.6236 4.37553 26.7802 5.4795 27.5687L5.85023 27.8335L0.333374 31.6953L0.335581 22.56ZM4.78769 16.1488C4.34715 15.2676 4.14727 14.2856 4.20831 13.3023C4.26934 12.3189 4.58911 11.3692 5.13525 10.5492L6.04608 9.18322L10.2659 6.23004V14.2615L5.50819 17.592L4.78769 16.1488ZM6.80851 27.1616L6.12056 26.6706C5.22998 26.0347 4.59572 25.1018 4.33203 24.0397C4.06835 22.9777 4.19257 21.8564 4.68231 20.8779L5.73052 18.7815L10.2659 15.6087V24.7441L6.80851 27.1616ZM3.7279 10.8063C3.29827 11.7219 3.08163 12.7229 3.09424 13.7342C3.10685 14.7454 3.34839 15.7407 3.80072 16.6453L4.5946 18.2331L0.335581 21.2127V13.1813L3.7279 10.8063ZM19.6672 26.0621C18.6855 25.3905 17.5239 25.0313 16.3345 25.0313C15.1451 25.0313 13.9834 25.3905 13.0017 26.0621L4.02636 32.2029H1.53384L11.1332 25.4828C11.206 25.432 11.2655 25.3644 11.3066 25.2858C11.3477 25.2071 11.3692 25.1197 11.3693 25.031C11.3693 23.7141 11.8924 22.4512 12.8236 21.52C13.7547 20.5889 15.0176 20.0658 16.3345 20.0658C17.6513 20.0658 18.9142 20.5889 19.8454 21.52C20.7765 22.4512 21.2997 23.7141 21.2997 25.031C21.2997 25.1197 21.3211 25.207 21.3621 25.2857C21.4032 25.3643 21.4625 25.432 21.5352 25.4828L31.1351 32.2029H28.6426L19.6672 26.0621Z" fill="#EE212B"></path></svg>