<svg xmlns="http://www.w3.org/2000/svg" width="24" height="23" viewBox="0 0 24 23" fill="none"><path d="M13.3375 14.629L9.5944 10.8863L9.2982 11.1825L9.29537 11.1865L9.29133 11.1894L8.10167 12.379L11.8444 16.1218L13.3375 14.629ZM20.6545 17.3716L22.9259 19.6394C23.216 18.8725 23.2774 18.0379 23.1025 17.2369C22.9276 16.4358 22.5241 15.7027 21.9407 15.1265C21.3549 14.5425 20.6125 14.1408 19.8032 13.9699C18.9939 13.799 18.1524 13.8663 17.3805 14.1635C17.3076 14.1915 17.2281 14.1976 17.1518 14.1814C17.0754 14.1651 17.0054 14.127 16.9502 14.0718L14.8388 11.9604L13.3246 13.4745L14.1934 14.3433C14.2692 14.4191 14.3117 14.5219 14.3117 14.629C14.3117 14.7362 14.2692 14.839 14.1934 14.9147L13.8936 15.2146L14.8505 16.1715C14.9059 16.2269 14.944 16.2973 14.9601 16.374C14.9763 16.4506 14.9698 16.5304 14.9414 16.6035C14.6449 17.3714 14.5765 18.2086 14.7444 19.0144C14.9124 19.8203 15.3096 20.5605 15.8882 21.146C16.4669 21.7314 17.2024 22.1373 18.0062 22.3147C18.81 22.4921 19.648 22.4335 20.4193 22.146L18.1515 19.8746C17.8246 19.5417 17.6423 19.0931 17.6445 18.6265C17.6466 18.1598 17.8329 17.7129 18.1629 17.383C18.4928 17.053 18.9397 16.8667 19.4064 16.8646C19.873 16.8624 20.3216 17.0447 20.6545 17.3716ZM7.17589 20.1417L10.1343 15.5548L8.66902 14.0896L6.20646 15.6777L7.17589 20.1417ZM2.86297 17.8339C2.54203 18.0399 2.2713 18.3151 2.07069 18.6394C1.87008 18.9637 1.74468 19.3289 1.7037 19.708C1.66272 20.0871 1.7072 20.4706 1.83388 20.8303C1.96056 21.19 2.16622 21.5167 2.43575 21.7865C2.70527 22.0563 3.03182 22.2622 3.39138 22.3892C3.75095 22.5163 4.13441 22.5611 4.51358 22.5205C4.89275 22.4798 5.258 22.3548 5.58249 22.1544C5.90698 21.9541 6.18247 21.6836 6.38871 21.3629L6.55722 21.1018L5.48111 16.1456L2.86297 17.8339ZM13.1222 9.67119C13.1177 9.67563 13.1113 9.67725 13.1068 9.68129L11.3207 11.4674L12.7556 12.9019L21.2417 4.41794L22.0325 0.757637L13.1315 9.65583C13.1282 9.66068 13.1266 9.66674 13.1222 9.67119ZM8.09359 1.27933C7.5174 0.695967 6.78429 0.292365 5.98322 0.117489C5.18214 -0.0573877 4.34753 0.00397749 3.58065 0.294139L5.84843 2.56556C6.17538 2.8985 6.35762 3.34709 6.35551 3.81372C6.35339 4.28035 6.16708 4.72726 5.83712 5.05722C5.50716 5.38718 5.06025 5.57349 4.59362 5.5756C4.12699 5.57772 3.67841 5.39548 3.34546 5.06853L1.07404 2.80075C0.78393 3.56764 0.722592 4.40224 0.897466 5.2033C1.07234 6.00436 1.47591 6.73747 2.05923 7.31369C2.64524 7.89732 3.38768 8.29882 4.1969 8.4697C5.00612 8.64058 5.8475 8.57353 6.61945 8.27665C6.69238 8.24872 6.77183 8.24252 6.84821 8.2588C6.92459 8.27508 6.99461 8.31314 7.04981 8.36838L9.00968 10.3287L9.30952 10.0292C9.38529 9.95346 9.48806 9.9109 9.59521 9.9109C9.70236 9.9109 9.80513 9.95346 9.88091 10.0292L10.7473 10.8968L12.2614 9.38266L9.14747 6.26829C9.09215 6.21298 9.05407 6.14279 9.03785 6.06626C9.02164 5.98972 9.028 5.91012 9.05615 5.83712C9.35385 5.06573 9.42137 4.22454 9.25052 3.41553C9.07966 2.60653 8.67778 1.86447 8.09359 1.27933Z" fill="white"></path></svg>