<svg xmlns="http://www.w3.org/2000/svg" width="28" height="23" viewBox="0 0 28 23" fill="none"><path fill-rule="evenodd" clip-rule="evenodd" d="M26.5375 19.5852H26.3567C26.2088 18.1227 24.9763 16.9723 23.4644 16.9723C21.9689 16.9723 20.72 18.1227 20.5885 19.5852H15.8885C15.757 18.1227 14.508 16.9723 13.0126 16.9723C11.5007 16.9723 10.2682 18.1227 10.1202 19.5852H9.82444C9.67654 18.1227 8.44401 16.9723 6.93212 16.9723C5.43665 16.9723 4.18769 18.1227 4.03979 19.5852C3.28384 19.5524 2.65936 18.9115 2.65936 18.1391V15.7069C2.65936 15.5426 2.79083 15.3947 2.95517 15.3947H20.0133V9.08414C20.0133 8.9198 20.1448 8.78833 20.3091 8.78833H22.0511V12.716C22.0511 13.6198 22.7906 14.3429 23.678 14.3429H28.0001V18.1391C28.0001 18.9443 27.3427 19.5852 26.5375 19.5852ZM23.0042 15.6905C22.4291 15.6905 21.8046 15.8055 21.8046 15.3947C21.8046 14.9674 22.4291 15.0989 23.0042 15.0989C23.3987 15.0989 23.3987 15.6905 23.0042 15.6905ZM22.6427 8.78833H24.4011C26.3896 8.78833 28.0001 10.4153 28.0001 12.3873V13.7513H23.678C23.1193 13.7513 22.6427 13.2912 22.6427 12.716V8.78833Z" fill="white"></path><path fill-rule="evenodd" clip-rule="evenodd" d="M13.0125 22.2804C11.6814 22.2804 10.5967 21.1958 10.5967 19.8647C10.5967 18.55 11.6814 17.4654 13.0125 17.4654C14.3272 17.4654 15.4118 18.55 15.4118 19.8811C15.4118 21.1958 14.3272 22.2804 13.0125 22.2804ZM13.0125 21.0644C11.4513 21.0644 11.4513 18.6815 13.0125 18.6815C14.5573 18.6815 14.5573 21.0644 13.0125 21.0644ZM6.93204 22.2804C5.60091 22.2804 4.53272 21.1958 4.53272 19.8647C4.53272 18.55 5.60091 17.4654 6.93204 17.4654C8.26316 17.4654 9.33135 18.55 9.33135 19.8811C9.33135 21.1958 8.26316 22.2804 6.93204 22.2804ZM6.93204 21.0644C5.37084 21.0644 5.37084 18.6815 6.93204 18.6815C8.49323 18.6815 8.49323 21.0644 6.93204 21.0644ZM23.4643 22.2804C22.1496 22.2804 21.065 21.1958 21.065 19.8647C21.065 18.55 22.1496 17.4654 23.4643 17.4654C24.7954 17.4654 25.8801 18.55 25.8801 19.8647C25.8801 21.1958 24.7954 22.2804 23.4643 22.2804ZM23.4643 21.0644C21.9031 21.0644 21.9031 18.6815 23.4643 18.6815C25.0255 18.6815 25.0255 21.0644 23.4643 21.0644ZM5.38727 16.0356L2.33061 15.1482C2.24844 15.1154 2.16627 15.0661 2.1334 14.9839L0.0463278 11.0891C-0.0522742 10.9412 0.0134605 10.7276 0.177797 10.6454L11.9607 4.31844L11.3034 3.06948C10.9747 2.47787 11.2048 1.72192 11.7964 1.40968L13.6698 0.407229C14.8202 -0.21725 15.7405 1.52472 14.6066 2.1492L13.8177 2.56004L17.4003 9.24854C17.4989 9.39645 17.4331 9.59365 17.2688 9.69225L5.55161 15.9863C5.50231 16.0192 5.43657 16.0356 5.38727 16.0356ZM5.66664 14.1129C5.55161 14.1129 5.43657 14.0472 5.38727 13.9321L3.84251 11.0727C3.6453 10.6947 4.22048 10.366 4.41768 10.7604L5.96245 13.6199C6.07748 13.85 5.91315 14.1129 5.66664 14.1129ZM8.44393 12.6174C8.3289 12.6174 8.21386 12.5517 8.14813 12.4531L6.6198 9.57722C6.40616 9.19924 6.98134 8.887 7.19497 9.26498L8.73974 12.1409C8.85477 12.3545 8.69044 12.6174 8.44393 12.6174ZM11.2212 11.1384C11.0898 11.1384 10.9912 11.0727 10.9254 10.9576L9.38065 8.09819C9.18345 7.72021 9.75863 7.39154 9.95583 7.78595L11.5006 10.6454C11.6156 10.8755 11.4513 11.1384 11.2212 11.1384ZM13.9821 9.64295C13.867 9.64295 13.752 9.57722 13.7027 9.46218L12.1579 6.60272C11.9443 6.22475 12.5195 5.91251 12.7331 6.29048L14.2779 9.16638C14.3929 9.38001 14.2286 9.64295 13.9821 9.64295ZM16.858 16.0356C16.7265 16.0356 14.0149 16.1343 14.0149 15.707V15.1318C14.0149 14.6224 14.4258 14.2279 14.9188 14.2279H16.2828C16.7758 14.2279 17.1866 14.6224 17.1866 15.1318C17.1866 15.5098 17.2852 16.0356 16.858 16.0356Z" fill="white"></path><path fill-rule="evenodd" clip-rule="evenodd" d="M16.168 14.8852H15.0341C14.8533 14.8852 14.7054 14.7373 14.7054 14.5566V10.5139C14.7054 9.88941 16.4967 9.82368 16.4967 9.90585V14.5566C16.4967 14.7373 16.3488 14.8852 16.168 14.8852Z" fill="white"></path></svg>