<svg xmlns="http://www.w3.org/2000/svg" width="28" height="35" viewBox="0 0 28 35" fill="none"><path d="M18.4312 8.97642H18.7028V9.99615C18.5572 10.018 18.4176 10.0699 18.2931 10.1485L13.8286 12.9682L9.42753 10.3331C9.39718 10.315 9.36595 10.2984 9.33396 10.2833C9.31103 10.2666 9.29023 10.2478 9.26597 10.2324C8.2785 9.59999 6.51789 9.65811 5.25809 11.2931C3.53921 13.5512 2.795 15.1476 2.17516 18.0636C2.08825 18.7113 2.14637 19.2252 2.30046 19.6386C2.38385 19.9966 2.58395 20.3167 2.86925 20.5486L3.48322 21.0477L8.89594 25.4476L11.0816 32.348C11.1787 32.6555 11.3633 32.928 11.6128 33.1321H5.20797C5.36368 33.0175 5.49815 32.8766 5.60533 32.7157C7.47338 29.8951 8.06335 27.3071 8.07229 25.174L4.13145 21.9786C4.89965 23.8918 5.3586 27.0529 2.82699 30.8756C2.33539 31.6178 2.51761 32.6081 3.22436 33.1321H0V34.3444H28V33.1321H20.8509V32.5597H24.9652V25.7434H23.7786V25.1711H24.9652V23.0791L24.2628 23.0213L23.9751 23.0362V21.0562H24.2832C24.3363 21.0562 24.3871 21.0351 24.4246 20.9976C24.4621 20.9601 24.4832 20.9093 24.4832 20.8562C24.4832 20.8032 24.4621 20.7524 24.4246 20.7149C24.3871 20.6774 24.3363 20.6563 24.2832 20.6563H23.9751V18.272H24.2832C24.3363 18.272 24.3871 18.2509 24.4246 18.2134C24.4621 18.1759 24.4832 18.1251 24.4832 18.072C24.4832 18.019 24.4621 17.9682 24.4246 17.9307C24.3871 17.8932 24.3363 17.8721 24.2832 17.8721H23.9751V15.443H24.2832C24.3363 15.443 24.3871 15.4219 24.4246 15.3844C24.4621 15.3469 24.4832 15.2961 24.4832 15.243C24.4832 15.19 24.4621 15.1392 24.4246 15.1017C24.3871 15.0642 24.3363 15.0431 24.2832 15.0431H23.9751V12.3443H24.2832C24.3363 12.3443 24.3871 12.3233 24.4246 12.2858C24.4621 12.2483 24.4832 12.1974 24.4832 12.1444C24.4832 12.0914 24.4621 12.0405 24.4246 12.003C24.3871 11.9655 24.3363 11.9444 24.2832 11.9444H23.9751V8.97642H24.2832C24.3363 8.97642 24.3871 8.95535 24.4246 8.91786C24.4621 8.88036 24.4832 8.8295 24.4832 8.77647C24.4832 8.72344 24.4621 8.67259 24.4246 8.63509C24.3871 8.59759 24.3363 8.57653 24.2832 8.57653H23.9751V1.62501H23.5752V8.57653H22.0217V3.25285H21.6218V8.57653H20.5621V0.210449H20.1622V8.57653H19.1027V3.25285H18.7028V8.57653H18.4312C18.3781 8.57653 18.3273 8.59759 18.2898 8.63509C18.2523 8.67259 18.2312 8.72344 18.2312 8.77647C18.2312 8.8295 18.2523 8.88036 18.2898 8.91786C18.3273 8.95535 18.3781 8.97642 18.4312 8.97642ZM19.509 23.0791L19.1027 23.0345V21.0563H20.1622V23.0397L19.509 23.0791ZM19.1027 20.6563V18.272H20.1622V20.6563H19.1027ZM19.1027 17.8721V15.4429H20.1622V17.8721H19.1027ZM20.5621 18.272H21.6218V20.6563H20.5621V18.272ZM20.5621 17.8721V15.4429H21.6218V17.8721H20.5621ZM20.5621 15.043V12.3443H21.6218V15.043H20.5621ZM20.1622 15.043H19.1027V12.3443H20.1622V15.043ZM14.1616 33.1322H13.7271C14.2376 32.7126 14.4703 32.0105 14.2587 31.342L11.9222 23.966C11.824 23.6559 11.6371 23.3814 11.3848 23.1762L6.70598 19.3728C6.90459 18.6131 7.20371 17.8538 7.54629 17.1214L6.23703 13.1733C6.17985 13.0022 6.15716 12.8215 6.17027 12.6416C6.18338 12.4617 6.23203 12.2862 6.31341 12.1252C6.39386 11.9638 6.50554 11.8199 6.64198 11.7019C6.77842 11.5839 6.93691 11.4942 7.10827 11.4379C7.24837 11.3914 7.39393 11.3679 7.54069 11.3679C8.13334 11.3679 8.65693 11.746 8.84355 12.309L9.34449 13.8194C9.37421 13.7677 9.405 13.7145 9.4338 13.664C9.57065 13.4649 9.685 13.2512 9.77477 13.0268L13.2959 15.1348C13.465 15.2362 13.659 15.2886 13.8563 15.2863C14.0535 15.2839 14.2462 15.2269 14.4129 15.1215L18.7028 12.4121V15.043H18.4312C18.3781 15.043 18.3273 15.064 18.2898 15.1015C18.2523 15.139 18.2312 15.1899 18.2312 15.2429C18.2312 15.2959 18.2523 15.3468 18.2898 15.3843C18.3273 15.4218 18.3781 15.4429 18.4312 15.4429H18.7028V17.8721H18.4312C18.3781 17.8721 18.3273 17.8932 18.2898 17.9307C18.2523 17.9682 18.2312 18.019 18.2312 18.072C18.2312 18.1251 18.2523 18.1759 18.2898 18.2134C18.3273 18.2509 18.3781 18.272 18.4312 18.272H18.7028V20.6563H18.4312C18.3781 20.6563 18.3273 20.6774 18.2898 20.7149C18.2523 20.7524 18.2312 20.8032 18.2312 20.8562C18.2312 20.9093 18.2523 20.9601 18.2898 20.9976C18.3273 21.0351 18.3781 21.0562 18.4312 21.0562H18.7028V22.9904L18.5176 22.97L17.6903 23.0793V33.1322H14.1616ZM20.5866 23.0139L20.5621 23.0154V21.0562H21.6218V23.0333L21.4893 23.0139H20.5866ZM21.6213 25.1712H23.0742V25.7435H21.6213V25.1712ZM23.5752 23.057L23.1465 23.0791L22.4432 23.1534L22.0217 23.0918V21.0563H23.5752V23.057ZM23.5752 20.6563H22.0217V18.272H23.5752V20.6563ZM23.5752 17.8721H22.0217V15.4429H23.5752V17.8721ZM23.5752 15.043H22.0217V12.3443H23.5752V15.043ZM23.5752 8.97642V11.9444H22.0217V8.97642H23.5752ZM21.6218 8.97642V11.9444H20.5621V8.97642H21.6218ZM20.1622 8.97642V11.9444H19.4421C19.6177 11.8306 19.7559 11.6676 19.8395 11.4758C19.9231 11.2839 19.9483 11.0717 19.9121 10.8656C19.876 10.6595 19.7799 10.4686 19.636 10.3168C19.492 10.1649 19.3066 10.0587 19.1027 10.0115V8.97642H20.1622Z" fill="white"></path></svg>