<svg xmlns="http://www.w3.org/2000/svg" width="28" height="20" viewBox="0 0 28 20" fill="none"><path d="M20.2971 17.6175C20.3896 20.7971 25.0287 20.7976 25.1212 17.6175C25.0292 14.4314 20.3896 14.4304 20.2971 17.6175ZM10.0052 17.6175C10.0988 20.7986 14.7319 20.7956 14.8249 17.6175C14.7324 14.4339 10.0998 14.4289 10.0052 17.6175Z" fill="white"></path><path d="M21.683 12.3515C21.5529 12.3512 21.4282 12.2993 21.3362 12.2073C21.2442 12.1153 21.1924 11.9906 21.192 11.8605V8.01841C21.1922 7.88822 21.244 7.76343 21.336 7.67132C21.428 7.57922 21.5528 7.52729 21.683 7.52689H26.3891L26.0501 6.63336C25.9332 6.33334 25.7287 6.07544 25.4632 5.89318C25.1977 5.71091 24.8836 5.61271 24.5616 5.61133H19.2414C19.0323 5.61133 18.8253 5.65251 18.6322 5.73253C18.4391 5.81254 18.2636 5.92982 18.1158 6.07766C17.968 6.2255 17.8508 6.40101 17.7708 6.59417C17.6909 6.78732 17.6498 6.99433 17.6498 7.20338V17.6177C17.6501 17.7479 17.7019 17.8727 17.7939 17.9648C17.8859 18.0569 18.0107 18.1088 18.1409 18.1092H19.3544C19.3277 17.9468 19.3145 17.7824 19.3149 17.6177C19.5549 12.7996 26.5381 13.3126 26.0651 18.1092C26.2995 18.1497 26.5398 18.1392 26.7698 18.0783C26.9997 18.0174 27.2138 17.9077 27.3975 17.7566C27.5811 17.6055 27.73 17.4166 27.8341 17.2027C27.9381 16.9888 27.9947 16.755 28.0002 16.5172V12.3515H21.683Z" fill="white"></path><path d="M22.1738 11.3691H27.843C27.8388 11.3471 27.8323 11.3257 27.8235 11.3051L26.7625 8.51001H22.1738V11.3691ZM3.28522 17.6178C3.34672 20.8239 8.14938 20.7519 8.10138 17.5523C7.99137 14.4242 3.33222 14.4987 3.28522 17.6178Z" fill="white"></path><path d="M16.4606 4.7518L12.5655 1.87821C12.5405 1.95671 9.37189 11.713 9.22938 12.15C9.14438 12.157 8.27435 12.15 8.19285 12.155C8.44336 11.371 11.454 2.13122 11.6465 1.5242L3.40819 0.561164C3.08254 0.524127 2.75405 0.600076 2.47771 0.776296C2.20136 0.952516 1.99393 1.21831 1.89014 1.5292L0.0675842 7.13938C-0.0318896 7.45194 -0.0212888 7.78914 0.0976214 8.09483C0.216532 8.40052 0.436574 8.65625 0.721106 8.81943L1.79164 9.41895V12.155H0.897611C0.767507 12.1554 0.642845 12.2073 0.550848 12.2993C0.45885 12.3913 0.406991 12.516 0.406595 12.6461V16.6352C0.40765 17.0257 0.563222 17.4 0.839323 17.6762C1.11542 17.9524 1.48961 18.108 1.88014 18.1092H2.34216C2.3155 17.9468 2.30228 17.7824 2.30266 17.6177C2.39616 13.5501 8.11935 12.9806 9.02288 16.9302C9.06288 17.1562 9.04788 17.2002 9.08688 16.9452C9.26155 16.0785 9.76773 15.3142 10.4976 14.8152C11.2275 14.3161 12.1233 14.1218 12.9944 14.2736C13.8654 14.4253 14.6428 14.9112 15.1608 15.6276C15.6789 16.3441 15.8968 17.2345 15.7681 18.1092H16.7556C16.5991 18.1647 16.6856 12.322 16.6671 12.155H15.0756C15.0806 12.145 15.0856 12.13 15.0906 12.1205L16.6671 7.25738L16.9671 6.33385C17.0622 6.05058 17.0643 5.74437 16.9732 5.45981C16.8821 5.17525 16.7025 4.92721 16.4606 4.7518ZM2.77417 12.155V9.96897L6.6653 12.155H2.77417Z" fill="white"></path></svg>