<svg width="28" height="31" viewBox="0 0 28 31" fill="none" xmlns="http://www.w3.org/2000/svg">
<path d="M28 14.5452L25.2311 19.4237L23.5099 18.2578L15.0627 12.5346C14.7501 12.3194 14.3795 12.2042 14 12.2042C13.6205 12.2042 13.2499 12.3194 12.9373 12.5346L4.49013 18.2578L2.76891 19.4237L0 14.5452L12.9373 5.78023C13.2499 5.56503 13.6205 5.4498 14 5.4498C14.3795 5.4498 14.7501 5.56503 15.0627 5.78023L28 14.5452ZM23.2451 10.3974V4.59131H18.4702V7.16296L23.2451 10.3974Z" fill="white"/>
<path d="M22.7937 0.21582H18.9214C17.925 0.21582 17.1173 1.02355 17.1173 2.01993C17.1173 3.01632 17.925 3.82404 18.9214 3.82404H22.7937C23.7901 3.82404 24.5978 3.01632 24.5978 2.01993C24.5978 1.02355 23.7901 0.21582 22.7937 0.21582Z" fill="white"/>
<path d="M14.6321 13.1712C14.4463 13.0416 14.2253 12.9722 13.9988 12.9722C13.7724 12.9722 13.5513 13.0416 13.3656 13.1712L4.49011 19.1845V30.9172H23.5098V19.1845L14.6321 13.1712ZM13.6162 25.341H10.2198V21.945H13.6162V25.341ZM13.6162 21.1775H10.239C10.3276 20.312 10.7118 19.5035 11.327 18.8883C11.9422 18.2731 12.7507 17.8888 13.6162 17.8003V21.1775ZM14.3838 17.8003C15.2493 17.8888 16.0578 18.2731 16.6729 18.8883C17.2881 19.5035 17.6724 20.312 17.7609 21.1775H14.3838V17.8003ZM17.7801 25.341H14.3838V21.945H17.7801V25.341Z" fill="white"/>
</svg>
