<svg width="24" height="23" viewBox="0 0 24 23" fill="none" xmlns="http://www.w3.org/2000/svg">
<path d="M13.3376 15.069L9.59447 11.3262L9.29826 11.6224L9.29543 11.6265L9.29139 11.6293L8.10173 12.819L11.8445 16.5617L13.3376 15.069ZM20.6546 17.8116L22.926 20.0794C23.2161 19.3125 23.2774 18.4779 23.1026 17.6768C22.9277 16.8757 22.5241 16.1426 21.9408 15.5664C21.355 14.9825 20.6125 14.5808 19.8032 14.4099C18.994 14.239 18.1525 14.3062 17.3806 14.6035C17.3077 14.6314 17.2282 14.6376 17.1518 14.6213C17.0754 14.605 17.0054 14.567 16.9502 14.5117L14.8388 12.4003L13.3247 13.9145L14.1935 14.7833C14.2692 14.8591 14.3118 14.9618 14.3118 15.069C14.3118 15.1761 14.2692 15.2789 14.1935 15.3547L13.8936 15.6545L14.8505 16.6114C14.906 16.6668 14.9441 16.7372 14.9602 16.8139C14.9763 16.8906 14.9698 16.9703 14.9415 17.0434C14.6449 17.8113 14.5765 18.6485 14.7445 19.4544C14.9125 20.2602 15.3097 21.0004 15.8883 21.5859C16.467 22.1714 17.2024 22.5772 18.0063 22.7546C18.8101 22.9321 19.6481 22.8735 20.4194 22.586L18.1516 20.3146C17.8247 19.9816 17.6424 19.533 17.6445 19.0664C17.6466 18.5998 17.833 18.1529 18.1629 17.8229C18.4929 17.4929 18.9398 17.3066 19.4064 17.3045C19.873 17.3024 20.3216 17.4846 20.6546 17.8116ZM7.17595 20.5817L10.1343 15.9948L8.66909 14.5295L6.20652 16.1176L7.17595 20.5817ZM2.86303 18.2739C2.54209 18.4798 2.27136 18.7551 2.07075 19.0794C1.87014 19.4037 1.74474 19.7688 1.70376 20.1479C1.66278 20.5271 1.70726 20.9106 1.83394 21.2703C1.96062 21.6299 2.16628 21.9567 2.43581 22.2264C2.70533 22.4962 3.03188 22.7022 3.39144 22.8292C3.75101 22.9562 4.13447 23.001 4.51364 22.9604C4.89281 22.9198 5.25806 22.7947 5.58255 22.5944C5.90704 22.3941 6.18253 22.1236 6.38877 21.8028L6.55728 21.5418L5.48117 16.5856L2.86303 18.2739ZM13.1222 10.1111C13.1178 10.1156 13.1113 10.1172 13.1069 10.1212L11.3208 11.9073L12.7557 13.3419L21.2417 4.85788L22.0325 1.19758L13.1315 10.0958C13.1283 10.1006 13.1267 10.1067 13.1222 10.1111ZM8.09365 1.71927C7.51746 1.13591 6.78435 0.732307 5.98328 0.55743C5.1822 0.382554 4.34759 0.443919 3.58071 0.73408L5.8485 3.0055C6.17545 3.33845 6.35769 3.78703 6.35557 4.25366C6.35345 4.72029 6.16714 5.1672 5.83718 5.49716C5.50722 5.82712 5.06031 6.01343 4.59368 6.01555C4.12705 6.01766 3.67847 5.83542 3.34553 5.50847L1.0741 3.24069C0.783991 4.00758 0.722653 4.84218 0.897527 5.64324C1.0724 6.4443 1.47597 7.17741 2.05929 7.75363C2.6453 8.33726 3.38774 8.73876 4.19696 8.90964C5.00618 9.08052 5.84757 9.01347 6.61951 8.71659C6.69244 8.68866 6.77189 8.68246 6.84827 8.69874C6.92465 8.71502 6.99467 8.75308 7.04987 8.80832L9.00974 10.7686L9.30958 10.4692C9.38536 10.3934 9.48812 10.3508 9.59527 10.3508C9.70243 10.3508 9.80519 10.3934 9.88097 10.4692L10.7474 11.3368L12.2615 9.8226L9.14753 6.70824C9.09221 6.65292 9.05413 6.58273 9.03792 6.5062C9.0217 6.42966 9.02806 6.35006 9.05621 6.27707C9.35391 5.50567 9.42143 4.66448 9.25058 3.85548C9.07973 3.04648 8.67784 2.30441 8.09365 1.71927Z" fill="white"/>
</svg>
