<svg xmlns="http://www.w3.org/2000/svg" width="29" height="20" viewBox="0 0 29 20" fill="none"><path d="M20.4891 17.0579C20.5816 20.2375 25.2208 20.238 25.3133 17.0579C25.2213 13.8718 20.5816 13.8708 20.4891 17.0579ZM10.1973 17.0579C10.2908 20.239 14.9239 20.236 15.0169 17.0579C14.9244 13.8743 10.2918 13.8693 10.1973 17.0579Z" fill="white"></path><path d="M21.8749 11.7915C21.7448 11.7911 21.6202 11.7392 21.5282 11.6472C21.4362 11.5552 21.3843 11.4306 21.3839 11.3005V7.45835C21.3842 7.32816 21.436 7.20337 21.528 7.11126C21.62 7.01916 21.7447 6.96723 21.8749 6.96683H26.5811L26.2421 6.0733C26.1251 5.77329 25.9206 5.51539 25.6551 5.33312C25.3897 5.15085 25.0755 5.05265 24.7535 5.05127H19.4334C19.2243 5.05127 19.0173 5.09245 18.8242 5.17247C18.631 5.25248 18.4556 5.36976 18.3078 5.5176C18.16 5.66544 18.0428 5.84095 17.9628 6.03411C17.8828 6.22726 17.8417 6.43427 17.8418 6.64332V17.0577C17.8421 17.1879 17.8939 17.3126 17.9859 17.4047C18.0779 17.4969 18.2026 17.5488 18.3328 17.5492H19.5464C19.5197 17.3867 19.5065 17.2223 19.5069 17.0577C19.7469 12.2395 26.7301 12.7525 26.2571 17.5492C26.4914 17.5896 26.7318 17.5791 26.9617 17.5182C27.1916 17.4574 27.4057 17.3477 27.5894 17.1966C27.7731 17.0454 27.922 16.8565 28.026 16.6426C28.13 16.4287 28.1867 16.1949 28.1921 15.9571V11.7915H21.8749Z" fill="white"></path><path d="M22.3657 10.8093H28.0349C28.0306 10.7873 28.0241 10.7659 28.0154 10.7453L26.9543 7.9502H22.3657V10.8093ZM3.47705 17.058C3.53855 20.2641 8.34121 20.1921 8.29321 16.9925C8.18321 13.8644 3.52405 13.9389 3.47705 17.058Z" fill="white"></path><path d="M16.6525 4.19199L12.7574 1.31839C12.7324 1.3969 9.56378 11.1532 9.42128 11.5902C9.33628 11.5972 8.46625 11.5902 8.38474 11.5952C8.63525 10.8112 11.6459 1.5714 11.8384 0.964382L3.60009 0.00134985C3.27444 -0.035687 2.94595 0.0402613 2.6696 0.216481C2.39326 0.392702 2.18583 0.658499 2.08204 0.969382L0.259479 6.57956C0.160005 6.89212 0.170606 7.22932 0.289516 7.53501C0.408426 7.84071 0.628469 8.09644 0.913 8.25962L1.98354 8.85914V11.5952H1.08951C0.959402 11.5956 0.83474 11.6475 0.742742 11.7395C0.650744 11.8315 0.598885 11.9561 0.59849 12.0862V16.0754C0.599545 16.4659 0.755116 16.8401 1.03122 17.1163C1.30732 17.3925 1.68151 17.5482 2.07204 17.5494H2.53405C2.50739 17.3869 2.49418 17.2226 2.49455 17.0579C2.58806 12.9903 8.31124 12.4208 9.21477 16.3704C9.25477 16.5964 9.23977 16.6404 9.27877 16.3854C9.45344 15.5187 9.95962 14.7544 10.6895 14.2554C11.4194 13.7563 12.3152 13.562 13.1863 13.7138C14.0573 13.8655 14.8346 14.3514 15.3527 15.0678C15.8708 15.7843 16.0887 16.6747 15.96 17.5494H16.9475C16.791 17.6049 16.8775 11.7622 16.859 11.5952H15.2675C15.2725 11.5852 15.2775 11.5702 15.2825 11.5607L16.859 6.69757L17.159 5.77404C17.2541 5.49077 17.2562 5.18455 17.1651 4.9C17.074 4.61544 16.8944 4.36739 16.6525 4.19199ZM2.96607 11.5952V9.40916L6.8572 11.5952H2.96607Z" fill="white"></path></svg>