<svg width="28" height="20" viewBox="0 0 28 20" fill="none" xmlns="http://www.w3.org/2000/svg">
<path d="M20.2972 17.0579C20.3897 20.2375 25.0289 20.238 25.1214 17.0579C25.0294 13.8718 20.3897 13.8708 20.2972 17.0579ZM10.0054 17.0579C10.0989 20.239 14.732 20.236 14.825 17.0579C14.7325 13.8743 10.0999 13.8693 10.0054 17.0579Z" fill="white"/>
<path d="M21.683 11.7915C21.5529 11.7911 21.4283 11.7392 21.3363 11.6472C21.2443 11.5552 21.1924 11.4306 21.192 11.3005V7.45835C21.1923 7.32816 21.2441 7.20337 21.3361 7.11126C21.4281 7.01916 21.5528 6.96723 21.683 6.96683H26.3892L26.0502 6.0733C25.9332 5.77329 25.7287 5.51539 25.4632 5.33312C25.1978 5.15085 24.8836 5.05265 24.5616 5.05127H19.2415C19.0324 5.05127 18.8254 5.09245 18.6323 5.17247C18.4391 5.25248 18.2637 5.36976 18.1159 5.5176C17.9681 5.66544 17.8509 5.84095 17.7709 6.03411C17.691 6.22726 17.6498 6.43427 17.6499 6.64332V17.0577C17.6502 17.1879 17.702 17.3126 17.794 17.4047C17.886 17.4969 18.0107 17.5488 18.1409 17.5492H19.3545C19.3278 17.3867 19.3146 17.2223 19.315 17.0577C19.555 12.2395 26.5382 12.7525 26.0652 17.5492C26.2996 17.5896 26.5399 17.5791 26.7698 17.5182C26.9997 17.4574 27.2138 17.3477 27.3975 17.1966C27.5812 17.0454 27.7301 16.8565 27.8341 16.6426C27.9381 16.4287 27.9948 16.1949 28.0002 15.9571V11.7915H21.683Z" fill="white"/>
<path d="M22.1738 10.8093H27.843C27.8387 10.7873 27.8322 10.7659 27.8235 10.7453L26.7624 7.9502H22.1738V10.8093ZM3.28516 17.058C3.34666 20.2641 8.14932 20.1921 8.10132 16.9925C7.99131 13.8644 3.33216 13.9389 3.28516 17.058Z" fill="white"/>
<path d="M16.4606 4.19199L12.5655 1.31839C12.5405 1.3969 9.37189 11.1532 9.22938 11.5902C9.14438 11.5972 8.27435 11.5902 8.19285 11.5952C8.44336 10.8112 11.454 1.5714 11.6465 0.964382L3.40819 0.00134985C3.08254 -0.035687 2.75405 0.0402613 2.47771 0.216481C2.20136 0.392702 1.99393 0.658499 1.89014 0.969382L0.0675842 6.57956C-0.0318896 6.89212 -0.0212888 7.22932 0.0976214 7.53501C0.216532 7.84071 0.436574 8.09644 0.721106 8.25962L1.79164 8.85914V11.5952H0.897611C0.767507 11.5956 0.642845 11.6475 0.550848 11.7395C0.45885 11.8315 0.406991 11.9561 0.406595 12.0862V16.0754C0.40765 16.4659 0.563222 16.8401 0.839323 17.1163C1.11542 17.3925 1.48961 17.5482 1.88014 17.5494H2.34216C2.3155 17.3869 2.30228 17.2226 2.30266 17.0579C2.39616 12.9903 8.11935 12.4208 9.02288 16.3704C9.06288 16.5964 9.04788 16.6404 9.08688 16.3854C9.26155 15.5187 9.76773 14.7544 10.4976 14.2554C11.2275 13.7563 12.1233 13.562 12.9944 13.7138C13.8654 13.8655 14.6428 14.3514 15.1608 15.0678C15.6789 15.7843 15.8968 16.6747 15.7681 17.5494H16.7556C16.5991 17.6049 16.6856 11.7622 16.6671 11.5952H15.0756C15.0806 11.5852 15.0856 11.5702 15.0906 11.5607L16.6671 6.69757L16.9671 5.77404C17.0622 5.49077 17.0643 5.18455 16.9732 4.9C16.8821 4.61544 16.7025 4.36739 16.4606 4.19199ZM2.77417 11.5952V9.40916L6.6653 11.5952H2.77417Z" fill="white"/>
</svg>
