<svg xmlns="http://www.w3.org/2000/svg" width="23" height="23" viewBox="0 0 23 23" fill="none"><path d="M12.5295 15.069L8.78636 11.3262L8.49016 11.6224L8.48733 11.6265L8.48329 11.6293L7.29363 12.819L11.0364 16.5617L12.5295 15.069ZM19.8465 17.8116L22.1179 20.0794C22.408 19.3125 22.4693 18.4779 22.2945 17.6768C22.1196 16.8757 21.716 16.1426 21.1327 15.5664C20.5469 14.9825 19.8044 14.5808 18.9951 14.4099C18.1858 14.239 17.3444 14.3062 16.5725 14.6035C16.4996 14.6314 16.4201 14.6376 16.3437 14.6213C16.2673 14.605 16.1973 14.567 16.1421 14.5117L14.0307 12.4003L12.5166 13.9145L13.3854 14.7833C13.4611 14.8591 13.5037 14.9618 13.5037 15.069C13.5037 15.1761 13.4611 15.2789 13.3854 15.3547L13.0855 15.6545L14.0424 16.6114C14.0979 16.6668 14.136 16.7372 14.1521 16.8139C14.1682 16.8906 14.1617 16.9703 14.1334 17.0434C13.8368 17.8113 13.7684 18.6485 13.9364 19.4544C14.1044 20.2602 14.5016 21.0004 15.0802 21.5859C15.6589 22.1714 16.3943 22.5772 17.1981 22.7546C18.002 22.9321 18.8399 22.8735 19.6113 22.586L17.3435 20.3146C17.0165 19.9816 16.8343 19.533 16.8364 19.0664C16.8385 18.5998 17.0248 18.1529 17.3548 17.8229C17.6848 17.4929 18.1317 17.3066 18.5983 17.3045C19.0649 17.3024 19.5135 17.4846 19.8465 17.8116ZM6.36785 20.5817L9.32623 15.9948L7.86098 14.5295L5.39842 16.1176L6.36785 20.5817ZM2.05493 18.2739C1.73398 18.4798 1.46326 18.7551 1.26265 19.0794C1.06203 19.4037 0.936631 19.7688 0.895651 20.1479C0.854671 20.5271 0.899156 20.9106 1.02584 21.2703C1.15252 21.6299 1.35818 21.9567 1.6277 22.2264C1.89723 22.4962 2.22377 22.7022 2.58334 22.8292C2.94291 22.9562 3.32636 23.001 3.70553 22.9604C4.0847 22.9198 4.44995 22.7947 4.77444 22.5944C5.09893 22.3941 5.37442 22.1236 5.58067 21.8028L5.74917 21.5418L4.67307 16.5856L2.05493 18.2739ZM12.3141 10.1111C12.3097 10.1156 12.3032 10.1172 12.2988 10.1212L10.5127 11.9073L11.9476 13.3419L20.4336 4.85788L21.2244 1.19758L12.3234 10.0958C12.3202 10.1006 12.3186 10.1067 12.3141 10.1111ZM7.28555 1.71927C6.70936 1.13591 5.97625 0.732307 5.17517 0.55743C4.3741 0.382554 3.53949 0.443919 2.7726 0.73408L5.04039 3.0055C5.36734 3.33845 5.54958 3.78703 5.54746 4.25366C5.54534 4.72029 5.35904 5.1672 5.02908 5.49716C4.69912 5.82712 4.2522 6.01343 3.78558 6.01555C3.31895 6.01766 2.87036 5.83542 2.53742 5.50847L0.265996 3.24069C-0.024114 4.00758 -0.0854521 4.84218 0.089422 5.64324C0.264296 6.4443 0.667868 7.17741 1.25118 7.75363C1.83719 8.33726 2.57964 8.73876 3.38886 8.90964C4.19808 9.08052 5.03946 9.01347 5.8114 8.71659C5.88433 8.68866 5.96379 8.68246 6.04017 8.69874C6.11654 8.71502 6.18657 8.75308 6.24177 8.80832L8.20163 10.7686L8.50147 10.4692C8.57725 10.3934 8.68002 10.3508 8.78717 10.3508C8.89432 10.3508 8.99708 10.3934 9.07286 10.4692L9.93925 11.3368L11.4534 9.8226L8.33943 6.70824C8.2841 6.65292 8.24602 6.58273 8.22981 6.5062C8.2136 6.42966 8.21995 6.35006 8.2481 6.27707C8.54581 5.50567 8.61332 4.66448 8.44247 3.85548C8.27162 3.04648 7.86974 2.30441 7.28555 1.71927Z" fill="white"></path></svg>